<?xml version="1.0" encoding="UTF-8"?><svg id="Layer_2" xmlns="http://www.w3.org/2000/svg" viewBox="0 0 27.5 25.5"><defs><style>.cls-1{fill:#fffefa;}</style></defs><g id="Layer_1-2"><g><path class="cls-1" d="M12.76,4h0c-.4,0-.77-.19-1.01-.51l-1.74-2.37c-.52-.7-1.35-1.12-2.22-1.12H0V22.75c0,1.52,1.23,2.75,2.75,2.75H24.75c1.52,0,2.75-1.23,2.75-2.75V3.98l-14.74,.02Zm13.24,18.75c0,.69-.56,1.25-1.25,1.25H2.75c-.69,0-1.25-.56-1.25-1.25V1.5H7.8c.4,0,.77,.19,1.01,.51l1.46,1.99H3.21v1.5l22.79-.02V22.75Z"/><path class="cls-1" d="M18.5,14.5H9v-5.5h9.5v5.5Zm-8-1.5h6.5v-2.5h-6.5v2.5Z"/></g></g></svg>