<svg width="32" height="32" viewBox="0 0 32 32" fill="none" xmlns="http://www.w3.org/2000/svg">
<path d="M13.6385 8.04028L18.2988 9.7879C18.3623 9.27807 18.4905 8.78839 18.6788 8.32867L14.1849 6.64349C14.2216 6.43347 14.25 6.22033 14.25 6C14.25 3.93262 12.5679 2.25 10.5 2.25C8.43213 2.25 6.75 3.93262 6.75 6C6.75 8.06738 8.43213 9.75 10.5 9.75C11.8146 9.75 12.9688 9.06696 13.6385 8.04028ZM10.5 8.25C9.25929 8.25 8.25001 7.24023 8.25001 6C8.25001 4.75977 9.25929 3.75 10.5 3.75C11.7407 3.75 12.75 4.75977 12.75 6C12.75 7.24023 11.7407 8.25 10.5 8.25ZM23.6514 23.3486C22.2354 21.9326 19.7656 21.9307 18.3486 23.3486C18.1939 23.5033 18.0611 23.6734 17.9375 23.8486L13.1314 21.6636C13.0281 22.1644 12.8547 22.6389 12.63 23.0832L17.3344 25.222C17.2811 25.4753 17.25 25.7349 17.25 26C17.25 27.0019 17.6402 27.9434 18.3487 28.6514C19.0567 29.3594 19.9986 29.75 21 29.75C22.0015 29.75 22.9434 29.3594 23.6514 28.6514C24.3599 27.9434 24.75 27.002 24.75 26C24.75 24.998 24.3599 24.0566 23.6514 23.3486ZM22.5908 27.5908C21.7412 28.4404 20.2588 28.4404 19.4092 27.5908C18.9839 27.166 18.75 26.6006 18.75 26C18.75 25.3994 18.9839 24.834 19.4092 24.4092C19.834 23.9844 20.3989 23.75 21 23.75C21.6011 23.75 22.166 23.9844 22.5908 24.4092C23.0161 24.834 23.25 25.3994 23.25 26C23.25 26.6006 23.0161 27.166 22.5908 27.5908Z" fill="#FFFEFA"/>
<path d="M24 6.25C21.6567 6.25 19.75 8.15625 19.75 10.5C19.75 11.077 19.8678 11.6266 20.077 12.1287L10.7703 17.819C9.99017 16.8693 8.82196 16.25 7.5 16.25C5.15674 16.25 3.25 18.1562 3.25 20.5C3.25 22.8438 5.15674 24.75 7.5 24.75C9.84326 24.75 11.75 22.8438 11.75 20.5C11.75 20.0175 11.6518 19.5612 11.503 19.1285L20.8976 13.3845C21.6742 14.2192 22.7728 14.75 24 14.75C26.3433 14.75 28.25 12.8438 28.25 10.5C28.25 8.15625 26.3433 6.25 24 6.25ZM7.49999 23.25C5.98339 23.25 4.74999 22.0166 4.74999 20.5C4.74999 18.9834 5.98339 17.75 7.49999 17.75C9.01659 17.75 10.25 18.9834 10.25 20.5C10.25 22.0166 9.01659 23.25 7.49999 23.25ZM24 13.25C22.4834 13.25 21.25 12.0166 21.25 10.5C21.25 8.9834 22.4834 7.75 24 7.75C25.5166 7.75 26.75 8.9834 26.75 10.5C26.75 12.0166 25.5166 13.25 24 13.25Z" fill="#FFFEFA"/>
</svg>
