<?xml version="1.0" encoding="UTF-8"?><svg id="Layer_2" xmlns="http://www.w3.org/2000/svg" viewBox="0 0 28.3 27.49"><defs><style>.cls-1{fill:#fffefa;}</style></defs><g id="Layer_1-2"><g><path class="cls-1" d="M11.9,7.28l-2.37,2.37-1.06-1.06,2.37-2.37-2.37-2.37,1.06-1.06,2.37,2.37,2.37-2.37,1.06,1.06-2.37,2.37,2.37,2.37-1.06,1.06-2.37-2.37Zm7.85,9.94c0,2.07-1.68,3.75-3.75,3.75s-3.75-1.68-3.75-3.75,1.68-3.75,3.75-3.75,3.75,1.68,3.75,3.75Zm-1.5,0c0-1.24-1.01-2.25-2.25-2.25s-2.25,1.01-2.25,2.25,1.01,2.25,2.25,2.25,2.25-1.01,2.25-2.25Z"/><path class="cls-1" d="M23.53,17.95l-1.06,1.06,2.93,2.93H8.78c-2.73,0-4.95-2.12-4.95-4.79s2.22-4.72,4.95-4.72h7.25c3.56,0,6.45-2.79,6.45-6.22S19.59,0,16.03,0H0V1.5H16.03c2.73,0,4.95,2.12,4.95,4.72s-2.22,4.72-4.95,4.72h-7.25c-3.56,0-6.45,2.79-6.45,6.29s2.9,6.22,6.45,6.22H25.46l-2.99,2.99,1.06,1.06,4.77-4.77-4.77-4.77Z"/></g></g></svg>