<svg width="32" height="32" viewBox="0 0 32 32" fill="none" xmlns="http://www.w3.org/2000/svg">
<path d="M12.0923 15.1626C11.0474 14.1665 9.88623 13.3179 8.64111 12.6382L7.4375 11.9819L8.63916 11.3228C11.4697 9.76807 13.7881 7.44971 15.3428 4.61866L16 3.42139L16.6572 4.61866C18.2119 7.44971 20.5303 9.76807 23.3608 11.3228L24.5576 11.98L23.3613 12.6372C22.4199 13.1548 21.5186 13.773 20.6821 14.4741L19.7183 13.3257C20.2978 12.8394 20.9063 12.3892 21.5366 11.9819C19.314 10.5522 17.4292 8.66846 16 6.44581C14.5713 8.66651 12.6875 10.5503 10.4663 11.979C11.4116 12.5884 12.3027 13.2915 13.1274 14.0767L12.0923 15.1626ZM24.6533 21.9311C24.8438 20.5161 23.8926 19.1782 22.4893 18.8843L18.7876 18.1089V13.4868C18.7876 12.2427 17.7754 11.23 16.5308 11.23C15.2861 11.23 14.2734 12.2427 14.2734 13.4868V20.2046L14.0825 20.019C12.9219 18.8901 11.0981 18.8862 9.93066 20.0063L8.84521 21.0512L9.55078 21.5805C9.58789 21.6079 13.269 24.4126 13.269 27.98H14.769C14.769 24.6762 12.3525 22.063 11.1318 20.9526C11.7085 20.5356 12.5093 20.5825 13.0371 21.0952L13.7969 21.8335C14.1343 22.1606 14.6313 22.2544 15.0635 22.0708C15.4946 21.8882 15.7734 21.4682 15.7734 21.0005V13.4868C15.7734 13.0698 16.1133 12.73 16.5308 12.73C16.9482 12.73 17.2876 13.0698 17.2876 13.4868V19.3276L22.1821 20.353C22.8203 20.4858 23.2529 21.0923 23.167 21.7319C22.9687 23.2065 22.499 25.4292 21.3862 27.643L22.727 28.3169C23.9326 25.9165 24.4399 23.52 24.6533 21.9311Z" fill="#191919"/>
<path d="M8.5 24.73H5C3.4834 24.73 2.25 23.4966 2.25 21.98V7.97998C2.25 6.46338 3.4834 5.22998 5 5.22998H12V6.72998H5C4.31055 6.72998 3.75 7.29053 3.75 7.97998V21.98C3.75 22.6694 4.31055 23.23 5 23.23H8.5V24.73ZM29.75 21.98V7.97998C29.75 6.46338 28.5166 5.22998 27 5.22998H20V6.72998H27C27.6894 6.72998 28.25 7.29053 28.25 7.97998V21.98C28.25 22.6694 27.6894 23.23 27 23.23H25.8198V24.73H27C28.5166 24.73 29.75 23.4966 29.75 21.98Z" fill="url(#paint0_linear_11_2847)"/>
<defs>
<linearGradient id="paint0_linear_11_2847" x1="16" y1="5.22998" x2="16" y2="24.73" gradientUnits="userSpaceOnUse">
<stop offset="0.025" stop-color="#99A7F1"/>
<stop offset="1" stop-color="#3F59E4"/>
</linearGradient>
</defs>
</svg>
