<?xml version="1.0" encoding="UTF-8"?><svg id="Layer_2" xmlns="http://www.w3.org/2000/svg" viewBox="0 0 29.25 26.5"><defs><style>.cls-1{fill:#fffefa;}</style></defs><g id="Layer_1-2"><g><g><path class="cls-1" d="M6.25,12.5c3.45,0,6.25-2.8,6.25-6.25,0-.25-.02-.49-.05-.73l-1.54,1.54c-.39,2.23-2.33,3.94-4.67,3.94-2.62,0-4.75-2.13-4.75-4.75S3.63,1.5,6.25,1.5c1.08,0,2.07,.38,2.87,.99l1.08-1.08c-1.08-.88-2.45-1.41-3.95-1.41C2.8,0,0,2.8,0,6.25s2.8,6.25,6.25,6.25Z"/><polygon class="cls-1" points="10.5 20.98 10.5 25 2 25 2 16.5 8.61 16.5 10.11 15 .5 15 .5 26.5 12 26.5 12 19.48 10.5 20.98"/></g><path class="cls-1" d="M7.24,8.62l-2.9-2.9,1.06-1.06,1.84,1.84L13.38,.35l1.06,1.06-7.2,7.2Zm7.2,6.3l-1.06-1.06-6.14,6.14-1.84-1.84-1.06,1.06,2.9,2.9,7.2-7.2Zm14.81-7.91H15.25v1.5h14v-1.5Zm-4,13H15.25v1.5h10v-1.5Z"/></g></g></svg>