<?xml version="1.0" encoding="UTF-8"?><svg id="Layer_2" xmlns="http://www.w3.org/2000/svg" viewBox="0 0 29.96 27.13"><defs><style>.cls-1{fill:#fffefa;}</style></defs><g id="Layer_1-2"><g><path class="cls-1" d="M22.28,13.49l-2.98,2.92c-.56,.56-1.3,.83-2.03,.83s-1.51-.29-2.07-.87l-2.78-2.83c.18-.5,.44-.95,.76-1.36l3.09,3.14c.54,.55,1.43,.56,1.98,.02l3.26-3.2c.32,.4,.58,.86,.77,1.35Zm1.06-5.8L29.96,1.06l-1.06-1.06-6.81,6.81c.44,.26,.85,.55,1.24,.88Zm-14.02-.95l1.48,1.48c.36-.35,.74-.68,1.15-.97l-1.57-1.57c-1.04-1.04-2.85-1.04-3.89,0L0,12.16l1.06,1.06L7.55,6.74c.47-.47,1.29-.47,1.77,0Z"/><path class="cls-1" d="M29.05,26.07l-5.35-5.35c1.21-1.44,1.95-3.3,1.95-5.33,0-4.57-3.71-8.28-8.28-8.28s-8.28,3.71-8.28,8.28,3.71,8.28,8.28,8.28c2,0,3.83-.71,5.27-1.9l5.36,5.36,1.06-1.06ZM10.58,15.39c0-3.74,3.04-6.78,6.78-6.78s6.78,3.04,6.78,6.78-3.04,6.78-6.78,6.78-6.78-3.04-6.78-6.78Z"/></g></g></svg>