<svg width="32" height="32" viewBox="0 0 32 32" fill="none" xmlns="http://www.w3.org/2000/svg">
<path d="M16 20.75C13.1055 20.75 10.75 18.3945 10.75 15.5C10.75 12.6055 13.1055 10.25 16 10.25C18.8945 10.25 21.25 12.6055 21.25 15.5C21.25 18.3945 18.8945 20.75 16 20.75ZM16 11.75C13.9326 11.75 12.25 13.4326 12.25 15.5C12.25 17.5674 13.9326 19.25 16 19.25C18.0674 19.25 19.75 17.5674 19.75 15.5C19.75 13.4326 18.0674 11.75 16 11.75Z" fill="#FFFEFA"/>
<path d="M27.604 12.2483L30.375 15.5147L29.2305 16.4853L24.5107 10.9219C22.2295 8.23144 19.207 6.74999 15.999 6.74999C12.791 6.74999 9.76856 8.23144 7.48731 10.9219L2.76758 16.4853L1.62305 15.5147L6.34278 9.95117C8.91407 6.91992 12.3438 5.25 15.999 5.25C18.5425 5.25 20.969 6.07532 23.0808 7.58838L23.0908 7.56934C24.6738 8.40137 26.6465 7.78809 27.4785 6.19922L28.8066 6.89649C28.2178 8.02051 27.2256 8.84766 26.0156 9.22559C25.7275 9.31543 25.4347 9.36756 25.1414 9.40186C25.3129 9.58472 25.4906 9.75708 25.6553 9.95118L26.1489 10.5332C26.6934 10.7981 27.3098 10.8503 27.8936 10.6709C28.498 10.4815 28.9941 10.0684 29.2891 9.50587L30.6172 10.2012C30.1367 11.1192 29.3281 11.7939 28.3408 12.1025C28.0979 12.1785 27.8513 12.2211 27.604 12.2483ZM15.999 24.1357C11.4941 24.1357 7.41505 21.4658 5.60743 17.334L4.23243 17.9355C6.27931 22.6133 10.8975 25.6357 15.999 25.6357C21.1006 25.6357 25.7188 22.6133 27.7656 17.9355L26.3906 17.334C24.583 21.4658 20.5039 24.1357 15.999 24.1357Z" fill="#FFFEFA"/>
</svg>
