<svg width="512" height="83" viewBox="0 0 512 83" fill="none" xmlns="http://www.w3.org/2000/svg">
<g clip-path="url(#clip0_3_43)">
<path d="M191.101 64.1662V0.182861H199.055V56.8673H228.221V64.1814H191.101V64.1662Z" fill="white"/>
<path d="M228.77 40.8524C228.77 26.6813 237.73 16.9901 250.895 16.9901C264.061 16.9901 272.655 25.3099 273.021 39.1153C273.021 40.121 272.93 41.2181 272.838 42.3152H236.632V42.9552C236.907 51.8236 242.484 58.0406 251.352 58.0406C257.935 58.0406 263.055 54.5664 264.61 48.5322H272.198C270.37 57.8577 262.69 64.7147 251.901 64.7147C237.912 64.7147 228.77 55.1149 228.77 40.8524ZM264.975 36.0982C264.244 28.0527 258.758 23.5728 250.987 23.5728C244.13 23.5728 237.821 28.5098 237.09 36.0982H264.975Z" fill="white"/>
<path d="M322.941 57.3092V64.1662H318.827C312.61 64.1662 310.507 61.5148 310.415 56.9435C307.49 61.1491 302.827 64.7147 294.781 64.7147C284.541 64.7147 277.592 59.5948 277.592 51.0922C277.592 41.7667 284.084 36.5554 296.335 36.5554H310.05V33.3554C310.05 27.3213 305.752 23.6642 298.438 23.6642C291.855 23.6642 287.467 26.7727 286.552 31.5269H279.055C280.152 22.3843 287.558 16.9901 298.804 16.9901C310.69 16.9901 317.547 22.9328 317.547 33.8126V54.2007C317.547 56.6692 318.461 57.3092 320.564 57.3092H322.941ZM310.05 42.8638H295.604C288.93 42.8638 285.181 45.3323 285.181 50.6351C285.181 55.2064 289.112 58.3149 295.33 58.3149C304.655 58.3149 310.05 52.9207 310.05 45.1495V42.8638Z" fill="white"/>
<path d="M350.095 17.5387V24.8528H346.347C336.564 24.8528 333.912 32.9898 333.912 40.3953V64.1662H326.415V17.5387H332.907L333.912 24.5785C336.107 21.0129 339.672 17.5387 347.992 17.5387H350.095Z" fill="white"/>
<path d="M395.992 38.2011V64.1662H388.495V38.6582C388.495 28.967 384.015 23.8471 375.878 23.8471C367.101 23.8471 361.798 30.3384 361.798 40.8524V64.1662H354.301V17.5387H360.792L361.798 23.8471C364.541 20.2815 369.295 16.9901 377.158 16.9901C387.672 16.9901 395.992 22.75 395.992 38.2011Z" fill="white"/>
<path d="M402.301 4.8456C402.301 2.01138 404.404 0 407.147 0C409.89 0 411.992 2.01138 411.992 4.8456C411.992 7.67982 409.89 9.69121 407.147 9.69121C404.404 9.69121 402.301 7.67982 402.301 4.8456ZM403.307 17.5386H410.804V64.1661H403.307V17.5386Z" fill="white"/>
<path d="M460.434 38.2011V64.1662H452.937V38.6582C452.937 28.967 448.457 23.8471 440.32 23.8471C431.543 23.8471 426.24 30.3384 426.24 40.8524V64.1662H418.743V17.5387H425.234L426.24 23.8471C428.983 20.2815 433.737 16.9901 441.6 16.9901C452.114 16.9901 460.434 22.75 460.434 38.2011Z" fill="white"/>
<path d="M505.508 17.5387H512V61.8805C512 75.3202 504.869 83 488.869 83C476.983 83 468.663 77.423 467.474 67.1832H475.154C476.434 73.0345 481.646 76.3259 489.417 76.3259C499.2 76.3259 504.503 71.7546 504.503 61.6062V56.1206C501.394 61.4234 496.366 64.7147 488.503 64.7147C475.611 64.7147 466.103 56.0292 466.103 40.8524C466.103 26.5899 475.611 16.9901 488.503 16.9901C496.366 16.9901 501.577 20.3729 504.503 25.5842L505.508 17.5387ZM504.594 41.0353C504.594 30.7955 498.377 23.6642 489.234 23.6642C480.091 23.6642 473.783 30.7041 473.783 40.8524C473.783 51.0008 480 58.0406 489.234 58.0406C498.468 58.0406 504.594 51.0008 504.594 41.0353Z" fill="white"/>
<path d="M139.84 56.014C131.749 56.014 126.019 49.6903 126.019 41.3858C126.019 33.0812 131.749 26.7575 139.84 26.7575C147.931 26.7575 153.493 33.0812 153.493 41.3858C153.493 49.6903 147.855 56.014 139.84 56.014ZM138.53 64.73C145.067 64.73 150.629 62.1853 154.149 56.8368C154.804 62.0177 158.568 63.9072 163.307 63.9072H167.07V55.694H165.44C162.743 55.694 162.088 54.3836 162.088 51.336V18.8796H153.417V25.5385C150.476 20.8605 144.914 18.0568 138.53 18.0568C127.162 18.0568 116.693 27.5956 116.693 41.3858C116.693 55.1759 127.162 64.7148 138.53 64.7148V64.73ZM93.8819 53.4693C93.8819 60.8596 98.4686 63.9072 103.939 63.9072H114.484V55.694H106.789C103.604 55.694 102.949 54.4598 102.949 51.336V27.0928H114.484V18.8796H102.949V3.76377H93.8667V53.4693H93.8819ZM52.5867 63.9072H61.6686V44.6009H64.701L80.1524 63.9072H91.5962L71.8933 39.4201L87.0248 18.8796H76.8L64.4571 36.2202H61.6686V3.74854H52.5867V63.8919V63.9072ZM23.1467 18.0568C10.4686 18.0568 0 27.5956 0 41.3858C0 55.1759 10.4686 64.7148 23.1467 64.7148C35.8248 64.7148 46.2933 55.1759 46.2933 41.3858C46.2933 27.5956 35.8248 18.0568 23.1467 18.0568ZM23.1467 56.014C15.0552 56.014 9.32571 49.6903 9.32571 41.3858C9.32571 33.0812 15.0552 26.7575 23.1467 26.7575C31.2381 26.7575 36.9676 33.0812 36.9676 41.3858C36.9676 49.6903 31.2381 56.014 23.1467 56.014Z" fill="white"/>
</g>
<defs>
<clipPath id="clip0_3_43">
<rect width="512" height="83" fill="white"/>
</clipPath>
</defs>
</svg>
